<svg width="20" height="20" viewBox="0 0 20 20" fill="black" xmlns="http://www.w3.org/2000/svg">
  <path d="M10 0C4.475 0 0 4.475 0 10C0 14.425 2.865 18.165 6.84 19.535C7.34 19.625 7.515 19.275 7.515 18.965C7.515 18.675 7.5 17.815 7.5 16.845C5.015 17.465 4.37 15.815 4.245 15.275C4.175 15.005 3.765 14.035 3.335 13.785C3.005 13.595 2.5 13.085 3.325 13.075C4.095 13.065 4.665 13.965 4.865 14.295C5.67 15.745 6.955 15.315 7.545 15.065C7.625 14.455 7.875 14.025 8.145 13.785C5.925 13.525 3.605 12.535 3.605 8.925C3.605 7.895 4.005 7.065 4.645 6.425C4.565 6.175 4.245 5.225 4.715 3.925C4.715 3.925 5.515 3.675 7.495 4.905C8.285 4.695 9.125 4.585 9.965 4.585C10.805 4.585 11.645 4.695 12.435 4.905C14.415 3.675 15.215 3.925 15.215 3.925C15.685 5.225 15.365 6.175 15.285 6.425C15.925 7.065 16.315 7.895 16.315 8.925C16.315 12.545 13.985 13.525 11.765 13.785C12.135 14.115 12.475 14.755 12.475 15.755C12.475 17.205 12.455 18.375 12.455 18.965C12.455 19.285 12.625 19.635 13.135 19.535C17.115 18.165 20 14.425 20 10C20 4.475 15.525 0 10 0Z" fill="white" />
</svg>
